<?xml version="1.0" standalone="no"?>
<!DOCTYPE svg PUBLIC "-//W3C//DTD SVG 20010904//EN"
 "http://www.w3.org/TR/2001/REC-SVG-20010904/DTD/svg10.dtd">
<svg version="1.0" xmlns="http://www.w3.org/2000/svg"
 width="550.000000pt" height="550.000000pt" viewBox="0 0 550.000000 550.000000"
 preserveAspectRatio="xMidYMid meet">
<metadata>
Created by potrace 1.11, written by Peter Selinger 2001-2013
</metadata>
<g transform="translate(0.000000,550.000000) scale(0.100000,-0.100000)"
fill="#000000" stroke="none">
<path d="M840 5009 l0 -489 1913 0 1912 0 -1 482 c-1 266 -2 486 -3 489 -1 4
-860 6 -1911 7 l-1910 0 0 -489z"/>
<path d="M846 2718 c1 -673 4 -1234 7 -1248 3 -14 8 -48 11 -75 6 -43 32 -153
65 -270 16 -59 72 -183 122 -271 197 -346 513 -596 926 -734 122 -41 303 -83
408 -95 33 -4 71 -9 85 -12 51 -8 448 -10 530 -2 73 7 166 20 260 35 225 38
529 165 725 304 91 64 262 227 326 310 151 196 265 465 303 715 4 22 9 56 13
75 3 19 8 587 9 1263 l4 1227 -667 -2 -666 -3 -2 -1185 c-1 -1264 0 -1218 -52
-1348 -91 -228 -297 -357 -541 -338 -67 6 -164 32 -216 60 -160 85 -283 260
-312 446 -4 25 -8 567 -8 1205 l-1 1160 -666 3 -666 2 3 -1222z"/>
</g>
</svg>
