<svg aria-hidden="true" style="position: absolute; width: 0; height: 0; overflow: hidden;" version="1.1" xmlns="http://www.w3.org/2000/svg" xmlns:xlink="http://www.w3.org/1999/xlink">
<defs>
<symbol id="icon-show-more" viewBox="0 0 32 32">
<title>show-more</title>
<path d="M16 8c2.2 0 4-1.8 4-4s-1.8-4-4-4-4 1.8-4 4 1.8 4 4 4zM16 12c-2.2 0-4 1.8-4 4s1.8 4 4 4 4-1.8 4-4-1.8-4-4-4zM16 24c-2.2 0-4 1.8-4 4s1.8 4 4 4 4-1.8 4-4-1.8-4-4-4z"></path>
</symbol>
<symbol id="icon-export" viewBox="0 0 32 32">
<title>export</title>
<path d="M27.179 20.394v7.31h-22.36v-7.31h-4.298v9.459c0 1.186 0.961 2.148 2.152 2.148h26.651c1.19 0 2.152-0.961 2.152-2.148v-9.459h-4.298z"></path>
<path d="M15.606 19.669l-6.153-7.435c0 0-0.936-0.884 0.079-0.884s3.467 0 3.467 0 0-0.595 0-1.511c0-2.614 0-7.372 0-9.311 0 0-0.138-0.527 0.656-0.527 0.801 0 4.307 0 4.88 0 0.572 0 0.559 0.444 0.559 0.444 0 1.881 0 6.803 0 9.332 0 0.82 0 1.351 0 1.351s1.966 0 3.2 0c1.232 0 0.304 0.925 0.304 0.925s-5.235 6.949-5.965 7.678c-0.525 0.528-1.029-0.062-1.029-0.062z"></path>
</symbol>
<symbol id="icon-info" viewBox="0 0 32 32">
<title>info</title>
<path d="M15.999 0c-8.822 0-15.999 7.178-15.999 16s7.178 16 15.999 16c8.822 0 16.001-7.178 16.001-16s-7.178-16-16.001-16zM15.999 29.902c-7.665 0-13.901-6.236-13.901-13.902s6.236-13.902 13.901-13.902c7.666 0 13.902 6.236 13.902 13.902s-6.236 13.902-13.902 13.902z"></path>
<path d="M15.703 10.078c0.772 0 1.399-0.627 1.399-1.399s-0.627-1.399-1.399-1.399c-0.773 0-1.399 0.627-1.399 1.399s0.626 1.399 1.399 1.399z"></path>
<path d="M17.927 22.367h-0.878v-10.002c0-0.579-0.47-1.049-1.049-1.049h-1.928c-0.579 0-1.049 0.47-1.049 1.049s0.47 1.049 1.049 1.049h0.878v8.953h-0.878c-0.579 0-1.049 0.47-1.049 1.049s0.47 1.049 1.049 1.049h3.854c0.58 0 1.049-0.47 1.049-1.049s-0.47-1.049-1.049-1.049z"></path>
</symbol>
<symbol id="icon-new-cart" viewBox="0 0 32 32">
<title>new-cart</title>
<path d="M31.186 4.122h-4.997c-0.954 0-1.904 0.719-2.163 1.637l-1.35 4.777c-0.154-0.043-0.317-0.068-0.486-0.068h-11.364c-0.549-2.446-2.737-4.28-5.346-4.28-3.022 0-5.48 2.458-5.48 5.48 0 2.765 2.059 5.057 4.724 5.427-0.001 0.036-0.001 0.072 0.003 0.108l0.283 2.871c0.1 1.017 0.98 1.814 2.002 1.814h12.53c0.958 0 1.904-0.724 2.154-1.649l1.567-5.795c0-0 0-0 0-0l2.329-8.243c0.063-0.224 0.365-0.452 0.597-0.452h4.997c0.45 0 0.814-0.364 0.814-0.814s-0.364-0.814-0.814-0.814zM1.628 11.668c0-2.124 1.728-3.852 3.852-3.852s3.852 1.728 3.852 3.852c0 2.124-1.728 3.852-3.852 3.852s-3.852-1.728-3.852-3.852zM20.125 19.814c-0.060 0.221-0.354 0.446-0.583 0.446h-12.53c-0.179 0-0.364-0.168-0.382-0.346l-0.28-2.836c2.471-0.396 4.395-2.45 4.592-4.982h11.248c0.008 0 0.015 0 0.021 0.001-0.001 0.006-0.003 0.013-0.005 0.020l-2.081 7.697z"></path>
<path d="M9.388 22.815c-1.396 0-2.532 1.136-2.532 2.532s1.136 2.532 2.532 2.532c1.396 0 2.532-1.136 2.532-2.532s-1.136-2.532-2.532-2.532zM9.388 26.25c-0.498 0-0.904-0.405-0.904-0.904s0.405-0.904 0.904-0.904c0.498 0 0.904 0.405 0.904 0.904s-0.406 0.904-0.904 0.904z"></path>
<path d="M17.415 22.815c-1.396 0-2.532 1.136-2.532 2.532s1.136 2.532 2.532 2.532c1.396 0 2.532-1.136 2.532-2.532s-1.136-2.532-2.532-2.532zM17.415 26.25c-0.498 0-0.904-0.405-0.904-0.904s0.405-0.904 0.904-0.904c0.498 0 0.904 0.405 0.904 0.904s-0.405 0.904-0.904 0.904z"></path>
<path d="M6.294 13.684v-1.202h1.202c0.449 0 0.814-0.364 0.814-0.814s-0.364-0.814-0.814-0.814h-1.202v-1.202c0-0.45-0.364-0.814-0.814-0.814s-0.814 0.364-0.814 0.814v1.202h-1.202c-0.45 0-0.814 0.364-0.814 0.814s0.364 0.814 0.814 0.814h1.202v1.202c0 0.45 0.364 0.814 0.814 0.814s0.814-0.364 0.814-0.814z"></path>
</symbol>
<symbol id="icon-edit" viewBox="0 0 32 32">
<title>edit</title>
<path d="M31.561 1.501l-1.061-1.061c-0.585-0.585-1.537-0.586-2.122 0l-1.402 1.401c-0 0-0 0.001-0.001 0.002l-24.553 24.552c-0.004 0.004-0.005 0.008-0.008 0.012-0.017 0.020-0.033 0.043-0.047 0.066-0.014 0.020-0.032 0.037-0.042 0.059l-2.276 4.752c-0.091 0.192-0.052 0.42 0.098 0.57 0.096 0.096 0.224 0.146 0.354 0.146 0.073 0 0.147-0.016 0.216-0.049l4.752-2.276c0.023-0.011 0.041-0.030 0.063-0.045 0.021-0.013 0.042-0.027 0.061-0.043 0.004-0.004 0.010-0.006 0.014-0.010l25.955-25.955c0.585-0.585 0.585-1.537 0-2.122zM3.46 29.527l-0.987-0.987 0.583-1.218 1.272 0.35 0.35 1.272-1.218 0.583z"></path>
</symbol>
<symbol id="icon-close" viewBox="0 0 32 32">
<title>close</title>
<path d="M32 1.829l-1.828-1.829-14.172 14.171-14.171-14.171-1.829 1.829 14.171 14.171-14.171 14.172 1.829 1.828 14.171-14.171 14.172 14.171 1.828-1.828-14.171-14.172z"></path>
</symbol>
<symbol id="icon-minus" viewBox="0 0 32 32">
<title>minus</title>
<path d="M0 15.238h32v1.524h-32v-1.524z"></path>
</symbol>
<symbol id="icon-plus" viewBox="0 0 32 32">
<title>plus</title>
<path d="M32 15.238h-15.238v-15.238h-1.524v15.238h-15.238v1.524h15.238v15.238h1.524v-15.238h15.238z"></path>
</symbol>
<symbol id="icon-order-tools" viewBox="0 0 26 32">
<title>order-tools</title>
<path d="M23.39 0h-20.148c-0.016-0-0.035-0.001-0.054-0.001-1.365 0-2.478 1.083-2.526 2.436l-0 0.004v26.684c0.048 1.358 1.16 2.441 2.526 2.441 0.019 0 0.038-0 0.057-0.001l-0.003 0h20.148c0.016 0 0.035 0.001 0.053 0.001 1.371 0 2.488-1.092 2.526-2.455l0-0.004v-26.667c-0.048-1.358-1.16-2.441-2.526-2.441-0.019 0-0.038 0-0.057 0.001l0.003-0zM23.216 2.667v26.248h-19.73v-26.248z"></path>
<path d="M8.296 11.939c1.29 0 2.335-1.046 2.335-2.335s-1.046-2.335-2.335-2.335c-1.29 0-2.335 1.046-2.335 2.335v0c0 1.29 1.046 2.335 2.335 2.335v0zM8.296 10.091c-0.021 0.003-0.045 0.005-0.070 0.005-0.27 0-0.488-0.219-0.488-0.488s0.218-0.488 0.488-0.488c0.268 0 0.485 0.216 0.488 0.483v0c0 0.002 0 0.003 0 0.005 0 0.245-0.18 0.448-0.416 0.483l-0.003 0z"></path>
<path d="M12.2 10.458h8.471c0.51 0 0.924-0.414 0.924-0.924s-0.414-0.924-0.924-0.924v0h-8.471c-0.51 0-0.924 0.414-0.924 0.924s0.414 0.924 0.924 0.924v0z"></path>
<path d="M8.296 18.388c1.29 0 2.335-1.046 2.335-2.335s-1.046-2.335-2.335-2.335c-1.29 0-2.335 1.046-2.335 2.335v0c0 1.29 1.046 2.335 2.335 2.335v0zM8.296 16.54c-0.021 0.003-0.045 0.005-0.070 0.005-0.27 0-0.488-0.218-0.488-0.488s0.218-0.488 0.488-0.488c0.268 0 0.485 0.216 0.488 0.483v0c0 0.002 0 0.003 0 0.005 0 0.245-0.18 0.448-0.416 0.483l-0.003 0z"></path>
<path d="M12.2 16.976h8.471c0.51 0 0.924-0.414 0.924-0.924s-0.414-0.924-0.924-0.924v0h-8.471c-0.51 0-0.924 0.414-0.924 0.924s0.414 0.924 0.924 0.924v0z"></path>
<path d="M8.296 24.819c1.29 0 2.335-1.046 2.335-2.335s-1.046-2.335-2.335-2.335c-1.29 0-2.335 1.046-2.335 2.335v0c0 1.29 1.046 2.335 2.335 2.335v0zM8.296 22.972c-0.021 0.003-0.045 0.005-0.070 0.005-0.27 0-0.488-0.218-0.488-0.488s0.218-0.488 0.488-0.488c0.268 0 0.485 0.216 0.488 0.483v0c0 0.002 0 0.003 0 0.005 0 0.245-0.18 0.448-0.416 0.483l-0.003 0z"></path>
<path d="M12.2 23.407h8.471c0.51 0 0.924-0.414 0.924-0.924s-0.414-0.924-0.924-0.924v0h-8.471c-0.51 0-0.924 0.414-0.924 0.924s0.414 0.924 0.924 0.924v0z"></path>
</symbol>
<symbol id="icon-sign-out" viewBox="0 0 34 32">
<title>sign-out</title>
<path d="M32.819 14.675l-8.575-8.558c-0.332-0.332-0.791-0.538-1.298-0.538-1.014 0-1.836 0.822-1.836 1.836 0 0.507 0.206 0.966 0.538 1.298l5.438 5.438h-17.255c-1.016 0-1.839 0.823-1.839 1.839s0.823 1.839 1.839 1.839v0h17.255l-5.438 5.438c-0.332 0.332-0.538 0.791-0.538 1.298 0 1.014 0.822 1.836 1.836 1.836 0.507 0 0.966-0.206 1.298-0.538l8.558-8.558c0.35-0.334 0.567-0.804 0.567-1.324 0-0.512-0.21-0.975-0.549-1.307l-0-0z"></path>
<path d="M18.388 28.078h-14.065v-24.209h14.065c1.016 0 1.839-0.823 1.839-1.839s-0.823-1.839-1.839-1.839v0h-15.895c-0.005-0-0.011-0-0.018-0-1.011 0-1.83 0.819-1.83 1.83 0 0.006 0 0.012 0 0.018v-0.001 27.887c0 1.011 0.819 1.83 1.83 1.83v0h15.913c1.016 0 1.839-0.823 1.839-1.839s-0.823-1.839-1.839-1.839v0z"></path>
</symbol>
<symbol id="icon-cart" viewBox="0 0 32 32">
<title>cart</title>
<path d="M14.044 27.733c0 1.669-1.353 3.022-3.022 3.022s-3.022-1.353-3.022-3.022c0-1.669 1.353-3.022 3.022-3.022s3.022 1.353 3.022 3.022z"></path>
<path d="M30.4 27.733c0 1.669-1.353 3.022-3.022 3.022s-3.022-1.353-3.022-3.022c0-1.669 1.353-3.022 3.022-3.022s3.022 1.353 3.022 3.022z"></path>
<path d="M31.644 7.111c0-0.178 0-0.178 0-0.356s0-0.178-0.178-0.356c0-0.178-0.178-0.178-0.178-0.178l-0.356-0.356c-0.178 0-0.178-0.178-0.356-0.178 0 0 0 0-0.178 0h-22.4l-0.889-3.2c-0.356-0.533-0.889-1.067-1.422-1.067h-4.267c-0.711 0-1.422 0.711-1.422 1.422s0.711 1.422 1.422 1.422h3.2l5.511 18.489c0.178 0.711 0.889 1.067 1.244 1.067h15.289c0.711 0 1.244-0.533 1.422-1.244l3.378-15.289 0.178-0.178c0 0.178 0 0.178 0 0v0zM25.778 20.978h-13.156l-3.733-12.444h19.556l-2.667 12.444z"></path>
</symbol>
<symbol id="icon-account" viewBox="0 0 32 32">
<title>account</title>
<path d="M16.32 20.96c4.8 0 8.64-3.84 8.64-8.64v-3.68c0-4.8-3.84-8.64-8.64-8.64s-8.64 3.84-8.64 8.64v3.84c0 4.64 3.84 8.48 8.64 8.48zM16.32 2.88c3.2 0 5.76 2.56 5.76 5.76v3.84c0 3.2-2.56 5.76-5.76 5.76s-5.76-2.56-5.76-5.76v-3.84c-0.16-3.2 2.56-5.76 5.76-5.76z"></path>
<path d="M27.040 18.56l-3.040-0.8c-0.32-0.16-0.8 0-1.12 0.16s-0.64 0.48-0.64 0.8c-0.16 0.32 0 0.8 0.16 1.12s0.48 0.64 0.8 0.64l3.040 0.8c1.12 0.32 1.6 0.8 1.6 1.28v3.040c0 0.64-0.64 1.28-1.28 1.28h-20.8c-0.64 0-1.28-0.64-1.28-1.28v-2.88c0-0.16 0-0.8 1.6-1.28l3.2-0.8c0.8-0.16 1.12-0.96 0.96-1.76s-0.96-1.12-1.76-0.96l-3.2 0.8c-3.2 0.96-3.68 2.88-3.68 4v2.88c0 2.24 1.76 4.16 4.16 4.16h20.96c2.24 0 4.16-1.76 4.16-4.16v-2.88c0-1.12-0.48-3.2-3.84-4.16z"></path>
</symbol>
<symbol id="icon-facebook" viewBox="0 0 19 32">
<title>facebook</title>
<path d="M17.853 10.611c0 0-0.168-0.168-0.337-0.168h-4.884v-2.358c0-1.011 0-1.011 1.011-1.011 1.516 0 3.032 0 3.2 0h0.674c0 0 0 0 0 0 0.168 0 0.337-0.168 0.337-0.337l0.168-5.895c0-0.168-0.168-0.337-0.337-0.505h-0.674c0-0.168-1.516-0.337-3.537-0.337-6.063 0-8.253 4.042-8.253 7.411v3.032h-3.2c-0.168 0-0.337 0.337-0.337 0.505v6.232c0 0.168 0.168 0.337 0.337 0.337h3.2v13.137c0 0.168 0.168 0.337 0.337 0.337h6.568c0.168 0 0.337-0.168 0.337-0.337v-13.137h4.716c0.168 0 0.337-0.168 0.337-0.337l0.337-6.232c0.168-0.168 0.168-0.168 0-0.337zM10.947 15.495c-0.168 0-0.337 0.168-0.337 0.337v13.137h-3.2v-13.137c0-0.168-0.168-0.337-0.337-0.337h-3.2v-2.863h3.2c0.168 0 0.337-0.168 0.337-0.337v-4.884c0-2.526 1.516-5.221 5.895-5.221 0.842 0 1.516 0 2.358 0.168v2.526c-0.505 0-1.347 0-2.021 0-2.863 0-3.2 1.853-3.2 3.2v4.211c0 0.168 0.168 0.337 0.337 0.337h4.884v2.863h-4.716z"></path>
</symbol>
<symbol id="icon-gplus" viewBox="0 0 28 32">
<title>gplus</title>
<path d="M27.022 4.267h-2.133v-1.956c0-0.533-0.356-0.889-0.889-0.889-0.533-0.178-0.889 0.356-0.889 0.889v2.133h-2.133c-0.533 0-0.889 0.356-0.889 0.889s0.356 0.889 0.889 0.889h2.133v2.133c0 0.533 0.356 0.889 0.889 0.889s0.889-0.356 0.889-0.889v-2.133h2.133c0.533 0 0.889-0.356 0.889-0.889 0.178-0.533-0.356-1.067-0.889-1.067z"></path>
<path d="M13.689 11.733c0 0 0 0 0 0 0.356-0.533 0.533-0.889 0.533-1.422 0-0.356 0-0.711 0-1.067 0-1.244-0.356-2.489-0.889-3.556-0.178-0.711-0.711-1.244-1.244-1.6s-1.244-0.711-1.956-0.711c0 0 0 0 0 0-1.067 0-1.778 0.356-2.489 1.244v0c-0.533 0.889-0.889 1.6-0.889 2.667s0.356 2.311 0.889 3.556c0.356 0.533 0.711 1.067 1.244 1.6s1.244 0.711 2.133 0.711c1.067-0.356 1.956-0.711 2.667-1.422 0 0.178 0 0 0 0zM12.444 9.244c0 0.178 0 0.533 0 0.711s-0.178 0.533-0.356 0.711c-0.178 0.178-0.533 0.356-0.889 0.356s-0.711 0-0.889-0.356c-0.356-0.178-0.711-0.533-0.889-0.889-0.533-0.889-0.711-1.778-0.711-2.667 0-0.533 0.178-1.067 0.356-1.422 0.356-0.178 0.711-0.356 1.067-0.356s0.711 0 0.889 0.178c0.356 0.178 0.533 0.533 0.711 0.889 0.533 1.067 0.711 1.956 0.711 2.844z"></path>
<path d="M16.533 17.067l-1.244-1.067c-0.178-0.178-0.356-0.356-0.533-0.533 0 0-0.178-0.178-0.178-0.356s0-0.356 0.178-0.533 0.356-0.711 0.533-0.711 0.711-0.711 1.244-1.067c0.356-0.356 0.711-0.711 1.067-1.244 0.711-1.067 1.067-2.311 1.067-3.911v-0.356c0-0.533 0-0.889-0.178-1.6-0.178-0.533-0.356-1.067-0.711-1.422h0.178c0.356 0 0.533-0.178 0.711-0.356l1.956-2.489c0.178-0.356 0.178-0.711 0.178-0.889-0.356-0.356-0.533-0.533-0.889-0.533h-7.822c-1.067 0-2.311 0.178-3.556 0.356-1.244 0.356-2.667 1.067-3.911 2.133-1.778 1.778-2.667 3.733-2.667 5.867 0 1.778 0.711 3.378 1.956 4.8s3.022 2.311 5.511 2.311c0 0.178 0 0.356 0 0.533 0 0.711 0.178 1.422 0.533 1.778-0.711 0-1.244 0.178-1.956 0.178-1.422 0.178-3.022 0.711-4.267 1.6-1.244 0.711-2.133 1.6-2.667 2.667-0.889 1.067-1.067 1.956-1.067 2.844 0 1.778 0.711 3.378 2.311 4.444 1.6 1.244 3.733 1.956 6.756 1.956 3.378 0 6.222-0.889 8-2.489 1.956-1.6 2.844-3.556 2.844-5.689 0-1.6-0.356-2.844-1.067-3.733-0.533-1.067-1.422-1.778-2.311-2.489zM11.378 19.378c0.356 0 0.711-0.178 0.889-0.533s0.178-0.711-0.178-0.889c-0.356-0.356-0.533-0.711-0.711-1.067s-0.178-0.711-0.178-1.067c0-0.356 0-0.356 0.178-0.533 0-0.178 0.178-0.356 0.178-0.533v-0.178c0.178-0.356 0-0.711-0.178-0.889s-0.533-0.356-0.889-0.356c0 0 0 0 0 0v0c-0.356 0-0.889 0-1.067 0-1.778 0-3.2-0.533-4.089-1.6s-1.422-2.133-1.422-3.556c0-1.6 0.711-3.2 2.133-4.444 0.889-0.711 1.778-1.244 2.844-1.6 1.067-0.178 2.133-0.356 3.2-0.356h5.867l-0.533 0.711h-1.956c-0.356 0-0.711 0.356-0.889 0.711 0 0.356 0.178 0.711 0.533 1.067 0.178 0 0.356 0.356 0.889 0.889l0.178 0.178c0 0 0.178 0.356 0.533 1.067 0.178 0.356 0.178 0.533 0.178 1.067v0.178c0 1.244-0.356 2.133-0.711 2.844-0.356 0.356-0.711 0.711-0.889 0.889-0.356 0.356-0.711 0.711-1.244 1.067-0.356 0.356-0.533 0.533-0.711 0.889-0.356 0.533-0.533 1.067-0.533 1.778s0.178 1.244 0.533 1.6c0.178 0.356 0.533 0.533 0.711 0.889l1.244 1.067c0.711 0.533 1.422 1.244 1.956 1.956s0.711 1.6 0.711 2.667c0 1.6-0.711 3.022-2.133 4.267-1.6 1.422-3.911 2.133-6.933 2.133-2.489 0-4.267-0.533-5.511-1.6-0.889-0.889-1.6-1.956-1.6-3.022 0-0.533 0.178-1.244 0.533-1.956s1.067-1.422 1.956-1.956c1.244-0.711 2.311-1.067 3.733-1.244 1.422-0.356 2.489-0.533 3.378-0.533z"></path>
<path d="M6.756 27.378c1.067 0.711 2.311 1.244 4.089 1.244 1.6 0 2.844-0.356 3.556-1.067 0.889-0.711 1.422-1.778 1.422-2.844 0-0.889-0.356-1.778-0.889-2.489-0.711-0.711-1.422-1.244-2.489-2.133-0.178 0-0.356-0.178-0.356-0.178-0.178 0-0.356 0-0.711 0-0.178 0-0.533 0-1.244 0-0.711 0.178-1.244 0.178-1.956 0.533-0.178 0-0.356 0.178-0.711 0.356s-0.711 0.356-1.067 0.711c-0.356 0.356-0.711 0.711-0.889 1.067-0.356 0.533-0.356 1.067-0.356 1.778-0.178 1.244 0.356 2.311 1.6 3.022zM6.933 24.178c0-0.356 0-0.711 0.178-0.889 0-0.178 0.178-0.356 0.356-0.533s0.356-0.356 0.533-0.356c0.178-0.178 0.356-0.178 0.533-0.178 0.533-0.178 1.067-0.356 1.6-0.356 0.356 0 0.711 0 0.889 0v0c0.178 0 0.178 0 0.356 0 0 0 0 0 0.178 0 0.889 0.711 1.6 1.244 1.956 1.6s0.533 0.711 0.533 1.244c0 0.533-0.178 1.067-0.711 1.422s-1.422 0.533-2.489 0.533c-1.244 0-2.311-0.356-3.022-0.889-0.711-0.356-0.889-0.889-0.889-1.6z"></path>
</symbol>
<symbol id="icon-instagram" viewBox="0 0 30 32">
<title>instagram</title>
<path d="M22.88 1.6h-16.48c-3.52 0-6.4 2.88-6.4 6.4v16.48c0 3.52 2.88 6.4 6.4 6.4h16.48c3.52 0 6.4-2.88 6.4-6.4v-16.48c0-3.52-2.88-6.4-6.4-6.4zM6.4 3.84h16.48c2.24 0 4.16 1.92 4.16 4.16v16.48c0 2.24-1.92 4.16-4.16 4.16h-16.48c-2.24 0-4.16-1.92-4.16-4.16v-16.48c0-2.24 1.92-4.16 4.16-4.16z"></path>
<path d="M24.64 7.52c0 1.325-1.075 2.4-2.4 2.4s-2.4-1.075-2.4-2.4c0-1.325 1.075-2.4 2.4-2.4s2.4 1.075 2.4 2.4z"></path>
<path d="M14.56 24c4.32 0 7.84-3.52 7.84-7.84s-3.52-7.84-7.84-7.84-7.84 3.52-7.84 7.84c0 4.32 3.52 7.84 7.84 7.84zM9.92 12.96c0.8-1.28 2.080-2.080 3.68-2.4 0.32 0 0.8-0.16 1.12-0.16 1.12 0 2.24 0.32 3.2 0.96 1.28 0.8 2.080 2.080 2.4 3.68 0.32 1.44 0 3.040-0.8 4.32s-2.080 2.080-3.68 2.4c-3.2 0.64-6.24-1.44-6.88-4.48-0.32-1.44 0-3.040 0.96-4.32z"></path>
</symbol>
<symbol id="icon-linkedin" viewBox="0 0 32 32">
<title>linkedin</title>
<path d="M5.221 0.505c-2.526 0-4.379 2.021-4.379 4.379s2.021 4.379 4.379 4.379c2.526 0 4.379-2.021 4.379-4.379s-1.853-4.379-4.379-4.379zM7.579 4.884c0 1.347-1.011 2.358-2.358 2.358s-2.358-1.011-2.358-2.358 1.011-2.358 2.358-2.358c1.347 0.168 2.358 1.179 2.358 2.358z"></path>
<path d="M8.926 9.937h-7.242c-0.168 0-0.337 0.168-0.337 0.337v20.211c0 0.168 0.168 0.337 0.337 0.337h7.242c0.168 0 0.337-0.168 0.337-0.337v-20.211c0-0.168-0.168-0.337-0.337-0.337zM3.368 28.8v-16.842h3.705v16.674h-3.705z"></path>
<path d="M23.074 9.432c-1.684 0-3.368 0.505-4.547 1.516v-0.674c0-0.168-0.168-0.337-0.337-0.337h-6.905c-0.337 0-0.505 0.168-0.505 0.337v20.211c0 0.168 0.168 0.337 0.337 0.337h7.242c0.168 0 0.337-0.168 0.337-0.337v-9.937c0-3.2 0.842-3.705 2.526-3.705 1.516 0 2.021 0.842 2.021 3.874v9.768c0 0.168 0.168 0.337 0.337 0.337h7.242c0.168 0 0.337-0.168 0.337-0.337v-10.947c0-4.716-0.842-10.105-8.084-10.105zM21.221 14.484c-4.547 0-4.547 4.379-4.547 5.895v8.253h-3.705v-16.674h3.537v2.189c0 0.168 0.168 0.337 0.337 0.337h1.179c0.168 0 0.337 0 0.337-0.168l0.168-0.337c0.674-1.179 2.189-2.526 4.547-2.526 5.053 0 5.895 2.863 5.895 7.916v9.263h-3.705v-8.084c0-1.853 0-6.063-4.042-6.063z"></path>
</symbol>
<symbol id="icon-location" viewBox="0 0 22 32">
<title>location</title>
<path d="M11.040 0c-6.080 0-11.040 4.96-11.040 11.040 0 2.080 0.64 4 1.6 5.76l8.48 13.6c0.16 0.32 0.64 0.64 1.12 0.64s0.8-0.32 1.12-0.64l8.16-13.76c0.96-1.76 1.6-3.68 1.6-5.6 0-6.080-4.96-11.040-11.040-11.040zM19.52 11.040c0 1.44-0.48 3.040-1.12 4.32l-7.2 11.84-7.36-11.68c-0.8-1.44-1.28-2.88-1.28-4.48 0-4.64 3.84-8.48 8.48-8.48s8.48 3.84 8.48 8.48z"></path>
<path d="M11.040 5.28c-3.2 0-5.76 2.56-5.76 5.76s2.56 5.76 5.76 5.76 5.76-2.56 5.76-5.76-2.56-5.76-5.76-5.76zM14.080 11.040c0 1.76-1.44 3.2-3.2 3.2s-3.2-1.44-3.2-3.2 1.44-3.2 3.2-3.2c1.92 0 3.2 1.44 3.2 3.2z"></path>
</symbol>
<symbol id="icon-pinterest" viewBox="0 0 25 32">
<title>pinterest</title>
<path d="M24 7.822c-0.533-1.6-1.244-3.022-2.311-4.089s-2.311-1.956-3.733-2.667c-1.067-0.533-2.844-1.067-4.978-1.067-0.178 0-0.356 0-0.533 0-0.533 0-1.244 0-1.956 0.178-1.778 0.178-3.378 0.711-4.8 1.6-1.778 1.067-3.378 2.667-4.267 4.444-0.533 0.889-1.067 2.667-1.244 3.733-0.178 1.244 0 3.556 0.533 4.8 0.533 1.6 1.067 2.311 2.489 3.378 0.178 0.178 0.889 0.533 1.422 0.533 1.244 0 1.422-1.067 1.422-1.6v-0.178c0 0 0-0.178 0-0.178 0.178-0.533 0.356-1.067 0-1.778 0-0.178-0.178-0.356-0.178-0.533v0c-0.178-0.178-0.178-0.178-0.178-0.178-0.533-0.711-0.711-1.422-0.711-2.489 0-1.244 0.356-2.489 0.889-3.556 1.067-1.956 2.844-3.2 5.156-3.556 1.244-0.178 2.844-0.178 3.911 0.178 1.067 0.533 1.778 1.067 2.489 1.778 0.711 0.889 1.067 1.778 1.067 3.022 0 0.533 0 1.244 0 2.133-0.178 2.133-0.889 3.733-1.778 4.978-0.711 1.067-1.6 1.6-2.489 1.6h-0.178c-0.533 0-0.889-0.178-1.244-0.356-0.178-0.356-0.533-0.533-0.533-1.067-0.178-0.356 0-0.889 0.178-1.422v-0.178c0.178-0.533 0.356-1.067 0.356-1.422 0.356-0.711 0.533-1.422 0.711-2.489s0.178-1.778 0.178-2.489c-0.178-0.889-0.711-1.6-1.422-1.956s-1.778-0.533-2.667-0.178c-1.422 0.356-2.489 1.6-2.844 3.2-0.178 0.889-0.356 1.778-0.178 2.489 0 0.711 0.178 1.244 0.533 1.956v0c0 0 0 0.178 0 0.178-0.356 0.889-0.533 1.778-0.711 2.667l-0.356 1.244c-0.178 1.067-0.533 2.133-0.711 3.2v0.356c-0.356 1.244-0.533 2.311-0.711 3.911v0.533c0 1.067-0.178 2.311 0 3.378 0 0.178 0.178 0.711 0.711 1.067 0.178 0 0.356 0.178 0.533 0.178 0.533 0 0.711-0.356 1.244-0.889 0.889-1.067 1.778-2.489 2.489-4.267 0.356-0.711 0.533-1.6 0.711-2.489l0.178-0.356c0.178-0.533 0.178-0.889 0.356-1.422 0.178 0.178 0.356 0.356 0.711 0.356 0.711 0.356 1.6 0.711 2.667 0.711 0.889 0 1.778 0 2.844-0.356 0.889-0.178 1.6-0.533 2.311-1.067 2.489-1.6 4.267-4.444 4.8-8 0.178-0.889 0.178-1.778 0.178-2.667 0-1.067-0.178-1.956-0.356-2.844zM14.222 21.156c-0.711 0-1.422-0.178-1.956-0.533s-0.889-0.711-1.244-1.067c-0.178-0.356-0.533-0.533-0.889-0.356-0.356 0-0.533 0.356-0.711 0.711l-0.356 1.244c-0.178 0.533-0.356 1.067-0.356 1.778v0.178c-0.178 0.711-0.356 1.6-0.711 2.311-0.533 1.244-1.067 2.311-1.778 3.2 0-0.711 0-1.244 0-1.956v-0.533c0-1.244 0.356-2.489 0.533-3.556v-0.178c0.178-0.889 0.533-1.956 0.711-2.844l0.356-1.244c0.178-1.067 0.533-1.956 0.711-3.022v-0.178c0-0.178 0.178-0.533 0-0.889-0.178-0.711-0.356-1.244-0.356-1.778 0-0.711 0-1.244 0.178-1.956 0.356-1.067 0.889-1.778 1.6-2.133 0.178 0 0.356-0.178 0.533-0.178 0.356 0 0.533 0 0.711 0.178 0.533 0.178 0.711 0.533 0.711 0.889 0.178 0.356 0 1.067-0.178 1.778 0 0.889-0.178 1.6-0.533 2.311-0.178 0.533-0.178 0.889-0.356 1.422v0.178c-0.178 0.711-0.533 1.422-0.356 2.311s0.711 1.422 1.244 1.956c0.711 0.533 1.422 0.711 2.311 0.711h0.178c1.422 0 2.667-0.711 3.733-2.133s1.778-3.378 2.133-5.867c0.178-0.889 0.178-1.778 0-2.489-0.178-1.6-0.533-3.022-1.422-4.089s-1.956-1.778-3.378-2.311c-1.244-0.178-3.022-0.356-4.622 0-2.844 0.533-4.978 1.956-6.4 4.444-0.711 1.422-1.067 2.844-1.067 4.267s0.356 2.489 1.067 3.378c0 0.178 0.178 0.178 0.356 0.356v0c0 0 0.178 0.178 0.178 0.178s0 0.178-0.178 0.533v0.178c0 0 0 0.178 0 0.178 0 0.178 0 0.178 0 0.356 0 0 0 0 0 0-0.178 0-0.178-0.178-0.178-0.178-1.422-0.711-1.778-1.244-2.311-2.489-0.356-1.067-0.533-3.022-0.356-3.911 0.178-1.067 0.711-2.489 1.067-3.2 0.889-1.6 2.133-2.844 3.733-3.733 1.244-0.711 2.667-1.244 4.267-1.422 0.533-0.178 1.244-0.178 1.778-0.178 2.133 0 3.911 0.533 4.622 0.889 1.244 0.533 2.311 1.244 3.2 2.311s1.6 2.133 1.956 3.378c0.178 0.711 0.356 1.422 0.356 2.489 0 0.889 0 1.6-0.178 2.489-0.533 3.022-1.956 5.511-4.089 6.756-0.533 0.356-1.244 0.711-1.778 0.889-1.067 0.178-1.778 0.178-2.489 0.178z"></path>
</symbol>
<symbol id="icon-search" viewBox="0 0 32 32">
<title>search</title>
<path d="M19.717 20.705c-4.891 0-8.871-3.982-8.871-8.871 0-4.898 3.98-8.878 8.871-8.878s8.873 3.98 8.873 8.878c0 4.889-3.982 8.871-8.873 8.871zM19.717 0.001c-6.532 0-11.833 5.294-11.833 11.833 0 2.732 0.94 5.241 2.494 7.243l-9.945 9.947c-0.29 0.288-0.434 0.67-0.434 1.044 0 0.38 0.144 0.763 0.434 1.051 0.288 0.288 0.668 0.434 1.044 0.434 0.382 0 0.756-0.146 1.045-0.434l9.95-9.95c2.002 1.559 4.51 2.492 7.244 2.492 6.533 0 11.833-5.294 11.833-11.826 0-6.539-5.3-11.833-11.833-11.833z"></path>
</symbol>
<symbol id="icon-twitter" viewBox="0 0 39 32">
<title>twitter</title>
<path d="M37.689 4.978v0c-0.178-0.178-0.533-0.178-0.889-0.178 0.356-0.711 0.356-1.244 0.356-1.6 0-0.533-0.356-0.889-0.711-1.067s-0.889-0.178-1.244 0.178c-1.244 0.889-2.489 1.244-3.378 1.244-1.422-1.244-3.378-1.956-5.333-1.956-4.444 0-8.178 3.556-8.178 8 0 0.178 0 0.356 0 0.356-6.756-0.356-12.089-6.578-12.089-6.578-0.356-0.356-0.711-0.533-1.067-0.533-0.533 0-0.889 0.356-1.067 0.711-1.778 3.2-1.067 6.044-0.178 7.644 0 0-0.178 0-0.178 0-0.356 0.356-0.711 0.711-0.711 1.244 0 3.2 1.244 5.156 2.667 6.222-0.178 0.356-0.356 0.711-0.178 1.067 0.889 2.844 2.844 4.267 4.622 4.978-2.844 1.6-6.4 1.067-7.111 1.067-0.533-0.178-1.067 0.178-1.422 0.711-0.178 0.533 0 1.067 0.356 1.422 3.733 2.844 8.356 3.378 11.556 3.378 2.311 0 3.911-0.356 4.267-0.356 15.822-3.556 16.711-17.244 16.711-20.622 2.844-2.489 3.378-3.733 3.556-4.089s0-0.889-0.356-1.244zM17.244 28.622c0 0-1.6 0.356-3.733 0.356-1.422 0-3.556-0.178-5.689-0.711 2.489-0.711 4.622-1.778 6.044-3.378 0.356-0.356 0.356-0.889 0.178-1.244-0.178-0.533-0.711-0.711-1.067-0.711-0.178 0-2.667 0-4.089-2.133 0.533 0 0.889-0.178 1.244-0.356 0.533-0.178 0.711-0.711 0.711-1.244s-0.533-1.067-1.067-1.067c-0.533-0.178-3.2-0.889-3.911-3.556 0.356 0.178 0.889 0.178 1.422 0 0.533 0 0.889-0.356 1.067-0.889s0-0.889-0.356-1.244c-0.356-0.178-3.2-2.667-2.311-6.044 2.311 2.311 7.644 6.4 14.044 6.044 0.356 0 0.711-0.178 0.889-0.533s0.356-0.711 0.178-1.067c-0.178-0.533-0.178-0.889-0.178-1.422 0-3.022 2.489-5.511 5.689-5.511 1.6 0 3.022 0.533 4.089 1.6 0.178 0.178 0.533 0.356 0.889 0.356h0.178c0.356 0 0.711 0 1.067 0 0 0 0 0 0 0-0.356 0.356-0.533 0.889-0.356 1.422s0.711 0.889 1.244 0.711c0 0 0 0 0 0-0.178 0.178-0.533 0.533-0.711 0.711v0c-0.356 0.178-0.356 0.711-0.356 1.067-0.178 0.711 0.356 15.111-15.111 18.844z"></path>
</symbol>
<symbol id="icon-user-pref" viewBox="0 0 36 32">
<title>user-pref</title>
<path d="M32.533 9.778c-1.778-3.911-4.8-6.756-9.067-8.533-2.133-0.889-4.267-1.244-6.578-1.244s-4.444 0.356-6.578 1.244c-4.089 1.778-7.111 4.622-8.889 8.533-1.067 1.956-1.422 4.089-1.422 6.222s0.356 4.267 1.422 6.222c1.778 3.911 4.8 6.756 9.067 8.533 1.956 0.889 4.089 1.244 6.4 1.244s4.444-0.356 6.578-1.244c4.267-1.778 7.289-4.622 9.067-8.533 0.889-1.956 1.422-4.089 1.422-6.222s-0.533-4.267-1.422-6.222zM11.378 3.022c-1.422 1.778-2.489 3.911-3.2 6.756h-4.444c1.6-3.2 4.267-5.511 7.644-6.756zM2.133 16c0-1.6 0.178-3.022 0.711-4.444h4.8c-0.178 1.422-0.356 3.022-0.356 4.444s0.178 2.844 0.356 4.444h-4.8c-0.533-1.6-0.711-3.022-0.711-4.444zM3.733 22.222h4.444c0.711 2.667 1.778 4.978 3.2 6.756-3.378-1.244-6.222-3.733-7.644-6.756zM15.822 29.867c-1.244-0.356-2.311-1.244-3.378-2.489-1.067-1.422-1.778-3.022-2.311-5.156h5.689v7.644zM15.822 20.267h-6.044c-0.356-1.422-0.356-2.844-0.356-4.267s0.178-3.022 0.356-4.444h6.044v8.711zM15.822 9.6h-5.689c0.533-1.956 1.422-3.733 2.311-4.978 1.067-1.422 2.133-2.133 3.378-2.489v7.467zM30.222 9.6h-4.444c-0.711-2.667-1.778-4.978-3.2-6.756 3.378 1.422 6.044 3.733 7.644 6.756zM17.956 2.133c1.244 0.356 2.311 1.244 3.378 2.489 1.067 1.422 1.778 3.022 2.311 4.978h-5.689v-7.467zM17.956 11.556h6.044c0.356 1.422 0.356 3.022 0.356 4.444s-0.178 2.844-0.356 4.444h-6.222v-8.889zM17.956 29.867v-7.644h5.689c-0.533 1.956-1.422 3.733-2.311 5.156-1.067 1.422-2.133 2.133-3.378 2.489zM22.578 28.978c1.422-1.778 2.489-3.911 3.2-6.756h4.444c-1.6 3.022-4.267 5.511-7.644 6.756zM31.111 20.267h-4.978c0.178-1.422 0.356-3.022 0.356-4.444s-0.178-2.844-0.356-4.444h4.8c0.533 1.422 0.711 2.844 0.711 4.444 0.178 1.6 0 3.022-0.533 4.444z"></path>
</symbol>
<symbol id="icon-youtube" viewBox="0 0 44 32">
<title>youtube</title>
<path d="M28.8 15.832l-10.274-5.221c-0.168 0-0.337 0-0.337 0-0.168 0-0.168 0.168-0.168 0.337v10.442c0 0.168 0 0.337 0.168 0.337 0 0 0.168 0 0.168 0s0.168 0 0.168 0l10.274-5.221c0.168 0 0.168-0.168 0.168-0.337s0-0.337-0.168-0.337z"></path>
<path d="M42.442 8.253c-0.337-3.537-2.863-5.895-6.232-6.063-9.432-0.674-18.695-0.674-27.789-0.168-3.368 0.337-5.895 2.863-6.4 6.232-0.505 5.389-0.505 10.779 0 16.168 0.505 3.368 3.032 5.895 6.4 6.063 5.389 0.337 10.274 0.505 14.821 0.505s8.926-0.168 12.968-0.505c3.368-0.168 5.895-2.695 6.232-6.063 0.674-5.558 0.674-11.116 0-16.168zM40.084 24.253c-0.168 2.189-1.853 3.874-4.042 4.042-7.916 0.505-17.011 0.505-27.621 0-2.189-0.168-3.705-1.684-4.042-4.042-0.505-5.221-0.505-10.611 0-15.663 0.168-2.189 1.853-3.874 4.042-4.042 4.547-0.337 9.095-0.337 13.642-0.337s9.263 0.168 13.811 0.337c2.189 0.168 3.705 1.684 4.042 4.042 0.674 4.884 0.674 10.105 0.168 15.663z"></path>
</symbol>
<symbol id="icon-symbol-defs" viewBox="0 0 32 32">
<title>symbol-defs</title>
<path d="M42.442 8.253c-0.337-3.537-2.863-5.895-6.232-6.063-9.432-0.674-18.695-0.674-27.789-0.168-3.368 0.337-5.895 2.863-6.4 6.232-0.505 5.389-0.505 10.779 0 16.168 0.505 3.368 3.032 5.895 6.4 6.063 5.389 0.337 10.274 0.505 14.821 0.505s8.926-0.168 12.968-0.505c3.368-0.168 5.895-2.695 6.232-6.063 0.674-5.558 0.674-11.116 0-16.168zM40.084 24.253c-0.168 2.189-1.853 3.874-4.042 4.042-7.916 0.505-17.011 0.505-27.621 0-2.189-0.168-3.705-1.684-4.042-4.042-0.505-5.221-0.505-10.611 0-15.663 0.168-2.189 1.853-3.874 4.042-4.042 4.547-0.337 9.095-0.337 13.642-0.337s9.263 0.168 13.811 0.337c2.189 0.168 3.705 1.684 4.042 4.042 0.674 4.884 0.674 10.105 0.168 15.663z"></path>
</symbol>
<symbol id="icon-chevron-up" viewBox="0 0 20 20">
<title>chevron-up</title>
<path d="M2.582 13.891c-0.272 0.268-0.709 0.268-0.979 0s-0.271-0.701 0-0.969l7.908-7.83c0.27-0.268 0.707-0.268 0.979 0l7.908 7.83c0.27 0.268 0.27 0.701 0 0.969s-0.709 0.268-0.978 0l-7.42-7.141-7.418 7.141z"></path>
</symbol>
<symbol id="icon-chevron-right" viewBox="0 0 20 20">
<title>chevron-right</title>
<path d="M13.25 10l-7.141-7.42c-0.268-0.27-0.268-0.707 0-0.979 0.268-0.27 0.701-0.27 0.969 0l7.83 7.908c0.268 0.271 0.268 0.709 0 0.979l-7.83 7.908c-0.268 0.271-0.701 0.27-0.969 0s-0.268-0.707 0-0.979l7.141-7.417z"></path>
</symbol>
<symbol id="icon-chevron-down" viewBox="0 0 20 20">
<title>chevron-down</title>
<path d="M17.418 6.109c0.272-0.268 0.709-0.268 0.979 0s0.271 0.701 0 0.969l-7.908 7.83c-0.27 0.268-0.707 0.268-0.979 0l-7.908-7.83c-0.27-0.268-0.27-0.701 0-0.969s0.709-0.268 0.979 0l7.419 7.141 7.418-7.141z"></path>
</symbol>
<symbol id="icon-chevron-left" viewBox="0 0 20 20">
<title>chevron-left</title>
<path d="M13.891 17.418c0.268 0.272 0.268 0.709 0 0.979s-0.701 0.271-0.969 0l-7.83-7.908c-0.268-0.27-0.268-0.707 0-0.979l7.83-7.908c0.268-0.27 0.701-0.27 0.969 0s0.268 0.709 0 0.979l-7.141 7.419 7.141 7.418z"></path>
</symbol>
<symbol id="icon-star" viewBox="0 0 32 32">
<title>star</title>
<path d="M31.972 12.36c-0.068-0.207-0.247-0.359-0.463-0.39l-10.362-1.506-4.634-9.389c-0.096-0.196-0.296-0.32-0.513-0.32s-0.418 0.124-0.513 0.32l-4.634 9.39-10.362 1.506c-0.216 0.031-0.395 0.182-0.463 0.39-0.067 0.207-0.011 0.435 0.145 0.587l7.498 7.309-1.771 10.32c-0.037 0.215 0.052 0.432 0.227 0.56 0.177 0.129 0.411 0.146 0.603 0.044l9.269-4.872 9.268 4.872c0.084 0.044 0.176 0.066 0.267 0.066 0.119 0 0.237-0.037 0.337-0.109 0.176-0.128 0.265-0.345 0.227-0.56l-1.77-10.32 7.498-7.309c0.156-0.153 0.212-0.38 0.144-0.587z"></path>
</symbol>
<symbol id="icon-star-empty" viewBox="0 0 32 32">
<title>star-empty</title>
<path d="M32 12.408l-11.056-1.607-4.944-10.018-4.944 10.018-11.056 1.607 8 7.798-1.889 11.011 9.889-5.199 9.889 5.199-1.889-11.011 8-7.798zM16 23.547l-6.983 3.671 1.334-7.776-5.65-5.507 7.808-1.134 3.492-7.075 3.492 7.075 7.807 1.134-5.65 5.507 1.334 7.776-6.983-3.671z"></path>
</symbol>
<symbol id="icon-star-full" viewBox="0 0 32 32">
<title>star-full</title>
<path d="M32 12.408l-11.056-1.607-4.944-10.018-4.944 10.018-11.056 1.607 8 7.798-1.889 11.011 9.889-5.199 9.889 5.199-1.889-11.011 8-7.798z"></path>
</symbol>
</defs>
</svg>
