<?xml version="1.0" encoding="UTF-8"?>
<svg width="122px" height="15px" viewBox="0 0 122 15" version="1.1" xmlns="http://www.w3.org/2000/svg" xmlns:xlink="http://www.w3.org/1999/xlink">
    <!-- Generator: Sketch 46.2 (44496) - http://www.bohemiancoding.com/sketch -->
    <title>Page 1 Copy 3</title>
    <desc>Created with Sketch.</desc>
    <defs>
        <polygon id="path-1" points="0 15 121.458546 15 121.458546 0.5292 0 0.5292"></polygon>
    </defs>
    <g id="Page-1" stroke="none" stroke-width="1" fill="none" fill-rule="evenodd">
        <g id="Home_desktop_menu" transform="translate(-627.000000, -70.000000)">
            <g id="Page-1-Copy-3" transform="translate(627.000000, 70.000000)">
                <polygon id="Fill-1" fill="#020303" points="19 1 31 1 31 4.01556822 26.8070019 4.01556822 26.8070019 15 23.1528076 15 23.1528076 4.01556822 19 4.01556822"></polygon>
                <g id="Group-14">
                    <path d="M43.9369165,7.72056 L46.5963907,7.72056 C47.3428546,7.72056 47.9188959,7.54236 48.3257722,7.18596 C48.7320196,6.83076 48.9357722,6.31536 48.9357722,5.64096 C48.9357722,4.99236 48.7320196,4.49316 48.3257722,4.14336 C47.9188959,3.79356 47.3428546,3.61896 46.5963907,3.61896 L43.9369165,3.61896 L43.9369165,7.72056 Z M48.6955454,14.20716 L46.656133,10.50636 L46.576267,10.50636 L43.9369165,10.50636 L43.9369165,14.20716 L40.2775454,14.20716 L40.2775454,0.83316 L46.576267,0.83316 C48.4289062,0.83316 49.8652361,1.24356 50.8852567,2.06376 C51.9046485,2.88396 52.4146588,4.03836 52.4146588,5.52696 C52.4146588,6.53196 52.2014732,7.39956 51.7751021,8.13096 C51.3481021,8.86176 50.7286691,9.43176 49.9155454,9.83796 L52.8347412,14.20716 L48.6955454,14.20716 Z" id="Fill-2" fill="#020303"></path>
                    <polygon id="Fill-4" fill="#020303" points="62.7525237 0.8334 73.8098742 0.8334 73.8098742 3.6192 66.4118948 3.6192 66.4118948 6.1182 73.0898227 6.1182 73.0898227 8.8842 66.4118948 8.9034 66.4118948 11.421 74.0098536 11.421 74.0098536 14.2068 62.7525237 14.2068"></polygon>
                    <polygon id="Fill-6" fill="#020303" points="93.8251691 0.8334 97.2241897 0.8334 97.2241897 14.2068 94.0245196 14.2068 87.6666845 6.2136 87.6666845 14.2068 84.2475402 14.2068 84.2475402 0.8334 87.4667052 0.8334 93.8446639 8.8842"></polygon>
                    <path d="M115.979803,10.90626 C116.526288,10.58886 116.952659,10.13706 117.259545,9.55206 C117.565803,8.96706 117.719875,8.29926 117.719875,7.54866 C117.719875,6.78546 117.55637,6.11166 117.22936,5.52666 C116.902978,4.94166 116.453339,4.48686 115.879813,4.16286 C115.306916,3.83826 114.653525,3.67566 113.920896,3.67566 L111.620504,3.67566 L111.620504,11.38326 L114.100752,11.38326 C114.806968,11.38326 115.433319,11.22426 115.979803,10.90626 M117.889669,1.67286 C119.015968,2.23266 119.892607,3.01806 120.518958,4.02906 C121.145308,5.04006 121.458484,6.20046 121.458484,7.51086 C121.458484,8.82066 121.142164,9.98466 120.508896,11.00166 C119.875628,12.01926 118.982009,12.80766 117.829298,13.36746 C116.675958,13.92726 115.353453,14.20686 113.860525,14.20686 L107.961762,14.20686 L107.961762,0.83346 L114.000762,0.83346 C115.466648,0.83346 116.762741,1.11366 117.889669,1.67286" id="Fill-8" fill="#020303"></path>
                    <path d="M3.97870928,11.7462 C4.28182268,12.0546 4.64530722,12.2088 5.06979175,12.2088 C5.48421443,12.2088 5.82757526,12.057 6.10050309,11.7534 C6.37343093,11.4498 6.50989485,11.052 6.50989485,10.56 L6.50989485,4.6314 L10.0258845,4.6314 L10.0258845,10.56 C10.0258845,11.4474 9.82150309,12.2256 9.41274021,12.8958 C9.00271959,13.566 8.42479175,14.0844 7.6770701,14.4504 C6.92871959,14.817 6.05522474,15 5.05469897,15 C4.0541732,15 3.17250309,14.817 2.40968866,14.4504 C1.64687423,14.0844 1.05574021,13.566 0.636286598,12.8958 C0.217461856,12.2256 0.00742061856,11.4474 0.00742061856,10.56 L0.00742061856,4.6314 L3.52403918,4.6314 L3.52403918,10.56 C3.52403918,11.0424 3.67559588,11.4378 3.97870928,11.7462" id="Fill-10" fill="#020303"></path>
                    <mask id="mask-2" fill="white">
                        <use xlink:href="#path-1"></use>
                    </mask>
                    <g id="Clip-13"></g>
                    <polygon id="Fill-12" fill="#020303" mask="url(#mask-2)" points="0 3.1068 10.0901546 3.1068 10.0901546 0.5292 0 0.5292"></polygon>
                </g>
            </g>
        </g>
    </g>
</svg>